Coordinates
version=1
nRows=21
nColumns=12
inDegrees=yes

Units are S.I. units (second, meters, Newtons, ...)
Angles are in degrees

endheader
time	SC_y	SC_z	SC_x	AC_y	AC_z	AC_x	GH_y	GH_z	GH_yy	EL_x	PS_y
       0.0              -41.94          11.32          51.15          69.57         -1.458         -18.74         -169.5          26.35         -44.64          10.23          107.8
   0.01349              -41.94          11.32          51.15          69.57          -1.46         -18.73         -169.4          26.34         -44.61          10.23          107.8
   0.02699              -41.94          11.32          51.14          69.56         -1.463         -18.73         -169.4          26.34         -44.57          10.23          107.8
   0.04048              -41.95          11.32          51.14          69.56         -1.466         -18.72         -169.3          26.34         -44.54          10.23          107.9
   0.05398              -41.95          11.32          51.14          69.56         -1.469         -18.71         -169.3          26.34         -44.51          10.23          107.9
   0.06747              -41.95          11.32          51.13          69.55         -1.472         -18.71         -169.2          26.34         -44.47          10.24          107.9
   0.08096              -41.96          11.32          51.13          69.55         -1.475          -18.7         -169.1          26.33         -44.43          10.24          107.9
   0.09446              -41.96          11.31          51.13          69.54         -1.478          -18.7         -169.1          26.33         -44.38          10.24          107.9
     0.108              -41.96          11.31          51.12          69.54         -1.482         -18.69         -169.0          26.33         -44.34          10.25          107.9
    0.1214              -41.97          11.31          51.12          69.53         -1.486         -18.68         -168.9          26.33         -44.29          10.25          107.9
    0.1349              -41.97          11.31          51.11          69.52          -1.49         -18.67         -168.8          26.33         -44.23          10.25          107.9
    0.1484              -41.98           11.3          51.11          69.52         -1.495         -18.66         -168.7          26.32         -44.18          10.26          107.9
    0.1619              -41.98           11.3           51.1          69.51           -1.5         -18.65         -168.6          26.32         -44.11          10.26          107.9
    0.1754              -41.99           11.3           51.1           69.5         -1.506         -18.64         -168.5          26.32         -44.05          10.27          107.9
    0.1889              -41.99           11.3          51.09          69.49         -1.511         -18.63         -168.4          26.31         -43.98          10.27          107.9
    0.2024               -42.0          11.29          51.08          69.48         -1.518         -18.62         -168.3          26.31          -43.9          10.28          107.9
    0.2159              -42.01          11.29          51.08          69.47         -1.525         -18.61         -168.1           26.3         -43.81          10.28          107.9
    0.2294              -42.02          11.29          51.07          69.46         -1.532         -18.59         -168.0           26.3         -43.72          10.29          108.0
    0.2429              -42.02          11.28          51.06          69.45          -1.54         -18.58         -167.8          26.29         -43.62           10.3          108.0
    0.2564              -42.03          11.28          51.05          69.44         -1.549         -18.56         -167.6          26.29         -43.51          10.31          108.0
    0.2699              -42.04          11.27          51.04          69.42         -1.559         -18.54         -167.4          26.28         -43.38          10.32          108.0
